<mxfile host="Electron" modified="2024-05-12T14:12:04.517Z" agent="Mozilla/5.0 (Windows NT 10.0; Win64; x64) AppleWebKit/537.36 (KHTML, like Gecko) draw.io/24.2.5 Chrome/120.0.6099.109 Electron/28.1.0 Safari/537.36" etag="n-ojhUyW4d99p1VCtFDP" version="24.2.5" type="device">
  <diagram name="Page-1" id="74e2e168-ea6b-b213-b513-2b3c1d86103e">
    <mxGraphModel dx="1221" dy="717" grid="1" gridSize="10" guides="1" tooltips="1" connect="1" arrows="1" fold="1" page="1" pageScale="1" pageWidth="1100" pageHeight="850" background="none" math="0" shadow="0">
      <root>
        <mxCell id="0" />
        <mxCell id="1" parent="0" />
        <mxCell id="77e6c97f196da883-1" value="Schuljahr beginnen" style="swimlane;html=1;childLayout=stackLayout;startSize=20;rounded=0;shadow=0;labelBackgroundColor=none;strokeWidth=1;fontFamily=Verdana;fontSize=8;align=center;" parent="1" vertex="1">
          <mxGeometry x="70" y="40" width="480" height="780" as="geometry" />
        </mxCell>
        <mxCell id="77e6c97f196da883-40" style="edgeStyle=orthogonalEdgeStyle;rounded=1;html=1;labelBackgroundColor=none;startArrow=none;startFill=0;startSize=5;endArrow=classicThin;endFill=1;endSize=5;jettySize=auto;orthogonalLoop=1;strokeWidth=1;fontFamily=Verdana;fontSize=8" parent="77e6c97f196da883-1" edge="1">
          <mxGeometry relative="1" as="geometry">
            <mxPoint x="770" y="690" as="sourcePoint" />
            <mxPoint x="830" y="690" as="targetPoint" />
          </mxGeometry>
        </mxCell>
        <mxCell id="77e6c97f196da883-2" value="Schulleitung" style="swimlane;html=1;startSize=20;" parent="77e6c97f196da883-1" vertex="1">
          <mxGeometry y="20" width="160" height="760" as="geometry" />
        </mxCell>
        <mxCell id="w0Vz86xxIUw0Jx15xpuw-7" value="" style="points=[[0.25,0.25,0],[0.5,0,0],[0.75,0.25,0],[1,0.5,0],[0.75,0.75,0],[0.5,1,0],[0.25,0.75,0],[0,0.5,0]];shape=mxgraph.bpmn.gateway2;html=1;verticalLabelPosition=bottom;labelBackgroundColor=#ffffff;verticalAlign=top;align=center;perimeter=rhombusPerimeter;outlineConnect=0;outline=none;symbol=none;gwType=exclusive;" vertex="1" parent="77e6c97f196da883-2">
          <mxGeometry x="55" y="150" width="50" height="50" as="geometry" />
        </mxCell>
        <mxCell id="w0Vz86xxIUw0Jx15xpuw-16" value="Schülerprofil&amp;nbsp;&lt;div&gt;erstellen&lt;/div&gt;" style="points=[[0.25,0,0],[0.5,0,0],[0.75,0,0],[1,0.25,0],[1,0.5,0],[1,0.75,0],[0.75,1,0],[0.5,1,0],[0.25,1,0],[0,0.75,0],[0,0.5,0],[0,0.25,0]];shape=mxgraph.bpmn.task;whiteSpace=wrap;rectStyle=rounded;size=10;html=1;container=1;expand=0;collapsible=0;taskMarker=abstract;" vertex="1" parent="77e6c97f196da883-2">
          <mxGeometry x="32.5" y="270" width="95" height="45" as="geometry" />
        </mxCell>
        <mxCell id="w0Vz86xxIUw0Jx15xpuw-10" style="edgeStyle=orthogonalEdgeStyle;rounded=0;orthogonalLoop=1;jettySize=auto;html=1;" edge="1" parent="77e6c97f196da883-2" source="w0Vz86xxIUw0Jx15xpuw-7" target="w0Vz86xxIUw0Jx15xpuw-16">
          <mxGeometry relative="1" as="geometry">
            <mxPoint x="80" y="260" as="targetPoint" />
          </mxGeometry>
        </mxCell>
        <mxCell id="w0Vz86xxIUw0Jx15xpuw-11" value="angenommen" style="edgeLabel;html=1;align=center;verticalAlign=middle;resizable=0;points=[];" vertex="1" connectable="0" parent="w0Vz86xxIUw0Jx15xpuw-10">
          <mxGeometry x="-0.122" y="1" relative="1" as="geometry">
            <mxPoint as="offset" />
          </mxGeometry>
        </mxCell>
        <mxCell id="w0Vz86xxIUw0Jx15xpuw-18" value="Schulklassen&lt;div&gt;(eckig)&lt;/div&gt;" style="points=[[0.25,0,0],[0.5,0,0],[0.75,0,0],[1,0.25,0],[1,0.5,0],[1,0.75,0],[0.75,1,0],[0.5,1,0],[0.25,1,0],[0,0.75,0],[0,0.5,0],[0,0.25,0]];shape=mxgraph.bpmn.task;whiteSpace=wrap;rectStyle=rounded;size=10;html=1;container=1;expand=0;collapsible=0;taskMarker=abstract;" vertex="1" parent="77e6c97f196da883-2">
          <mxGeometry x="35" y="390" width="90" height="55" as="geometry" />
        </mxCell>
        <mxCell id="w0Vz86xxIUw0Jx15xpuw-19" style="edgeStyle=orthogonalEdgeStyle;rounded=0;orthogonalLoop=1;jettySize=auto;html=1;entryX=0.5;entryY=0;entryDx=0;entryDy=0;entryPerimeter=0;" edge="1" parent="77e6c97f196da883-2" source="w0Vz86xxIUw0Jx15xpuw-16" target="w0Vz86xxIUw0Jx15xpuw-18">
          <mxGeometry relative="1" as="geometry" />
        </mxCell>
        <mxCell id="w0Vz86xxIUw0Jx15xpuw-20" value="wird zu&amp;nbsp;&lt;div&gt;geordnet&lt;/div&gt;" style="edgeLabel;html=1;align=center;verticalAlign=middle;resizable=0;points=[];" vertex="1" connectable="0" parent="w0Vz86xxIUw0Jx15xpuw-19">
          <mxGeometry x="-0.2909" y="2" relative="1" as="geometry">
            <mxPoint x="-2" as="offset" />
          </mxGeometry>
        </mxCell>
        <mxCell id="w0Vz86xxIUw0Jx15xpuw-28" value="Lehrerrollen werden zugeteilt" style="points=[[0.25,0,0],[0.5,0,0],[0.75,0,0],[1,0.25,0],[1,0.5,0],[1,0.75,0],[0.75,1,0],[0.5,1,0],[0.25,1,0],[0,0.75,0],[0,0.5,0],[0,0.25,0]];shape=mxgraph.bpmn.task;whiteSpace=wrap;rectStyle=rounded;size=10;html=1;container=1;expand=0;collapsible=0;taskMarker=abstract;" vertex="1" parent="77e6c97f196da883-2">
          <mxGeometry x="27.5" y="480" width="105" height="60" as="geometry" />
        </mxCell>
        <mxCell id="w0Vz86xxIUw0Jx15xpuw-27" style="edgeStyle=orthogonalEdgeStyle;rounded=0;orthogonalLoop=1;jettySize=auto;html=1;" edge="1" parent="77e6c97f196da883-2" source="w0Vz86xxIUw0Jx15xpuw-18" target="w0Vz86xxIUw0Jx15xpuw-28">
          <mxGeometry relative="1" as="geometry">
            <mxPoint x="80.00000000000011" y="490.0000000000001" as="targetPoint" />
          </mxGeometry>
        </mxCell>
        <mxCell id="77e6c97f196da883-3" value="Lehrer" style="swimlane;html=1;startSize=20;" parent="77e6c97f196da883-1" vertex="1">
          <mxGeometry x="160" y="20" width="160" height="760" as="geometry" />
        </mxCell>
        <mxCell id="w0Vz86xxIUw0Jx15xpuw-21" value="" style="points=[[0.25,0,0],[0.5,0,0],[0.75,0,0],[1,0.25,0],[1,0.5,0],[1,0.75,0],[0.75,1,0],[0.5,1,0],[0.25,1,0],[0,0.75,0],[0,0.5,0],[0,0.25,0]];shape=mxgraph.bpmn.task;whiteSpace=wrap;rectStyle=rounded;size=10;html=1;container=1;expand=0;collapsible=0;taskMarker=abstract;" vertex="1" parent="77e6c97f196da883-3">
          <mxGeometry x="35" y="360" width="90" height="60" as="geometry" />
        </mxCell>
        <mxCell id="w0Vz86xxIUw0Jx15xpuw-23" value="Stundenplan-ersteller erstellt Stundenplan" style="points=[[0.25,0,0],[0.5,0,0],[0.75,0,0],[1,0.25,0],[1,0.5,0],[1,0.75,0],[0.75,1,0],[0.5,1,0],[0.25,1,0],[0,0.75,0],[0,0.5,0],[0,0.25,0]];shape=mxgraph.bpmn.task;whiteSpace=wrap;rectStyle=rounded;size=10;html=1;container=1;expand=0;collapsible=0;taskMarker=abstract;" vertex="1" parent="77e6c97f196da883-3">
          <mxGeometry x="35" y="260" width="90" height="50" as="geometry" />
        </mxCell>
        <mxCell id="77e6c97f196da883-4" value="Schüler" style="swimlane;html=1;startSize=20;" parent="77e6c97f196da883-1" vertex="1">
          <mxGeometry x="320" y="20" width="160" height="760" as="geometry" />
        </mxCell>
        <mxCell id="w0Vz86xxIUw0Jx15xpuw-4" value="anmelden" style="points=[[0.25,0,0],[0.5,0,0],[0.75,0,0],[1,0.25,0],[1,0.5,0],[1,0.75,0],[0.75,1,0],[0.5,1,0],[0.25,1,0],[0,0.75,0],[0,0.5,0],[0,0.25,0]];shape=mxgraph.bpmn.task;whiteSpace=wrap;rectStyle=rounded;size=10;html=1;container=1;expand=0;collapsible=0;taskMarker=abstract;" vertex="1" parent="77e6c97f196da883-4">
          <mxGeometry x="42.5" y="100" width="75" height="30" as="geometry" />
        </mxCell>
        <mxCell id="w0Vz86xxIUw0Jx15xpuw-5" style="edgeStyle=orthogonalEdgeStyle;rounded=0;orthogonalLoop=1;jettySize=auto;html=1;entryX=0.5;entryY=0;entryDx=0;entryDy=0;entryPerimeter=0;" edge="1" parent="77e6c97f196da883-4" target="w0Vz86xxIUw0Jx15xpuw-4">
          <mxGeometry relative="1" as="geometry">
            <mxPoint x="80" y="70" as="sourcePoint" />
          </mxGeometry>
        </mxCell>
        <mxCell id="w0Vz86xxIUw0Jx15xpuw-6" value="" style="points=[[0.145,0.145,0],[0.5,0,0],[0.855,0.145,0],[1,0.5,0],[0.855,0.855,0],[0.5,1,0],[0.145,0.855,0],[0,0.5,0]];shape=mxgraph.bpmn.event;html=1;verticalLabelPosition=bottom;labelBackgroundColor=#ffffff;verticalAlign=top;align=center;perimeter=ellipsePerimeter;outlineConnect=0;aspect=fixed;outline=standard;symbol=general;" vertex="1" parent="77e6c97f196da883-4">
          <mxGeometry x="65" y="40" width="30" height="30" as="geometry" />
        </mxCell>
        <mxCell id="w0Vz86xxIUw0Jx15xpuw-14" value="neue Schule&lt;div&gt;suchen&lt;/div&gt;" style="points=[[0.25,0,0],[0.5,0,0],[0.75,0,0],[1,0.25,0],[1,0.5,0],[1,0.75,0],[0.75,1,0],[0.5,1,0],[0.25,1,0],[0,0.75,0],[0,0.5,0],[0,0.25,0]];shape=mxgraph.bpmn.task;whiteSpace=wrap;rectStyle=rounded;size=10;html=1;container=1;expand=0;collapsible=0;taskMarker=abstract;" vertex="1" parent="77e6c97f196da883-4">
          <mxGeometry x="45" y="152.5" width="70" height="45" as="geometry" />
        </mxCell>
        <mxCell id="w0Vz86xxIUw0Jx15xpuw-8" style="edgeStyle=orthogonalEdgeStyle;rounded=0;orthogonalLoop=1;jettySize=auto;html=1;entryX=0.5;entryY=0;entryDx=0;entryDy=0;entryPerimeter=0;" edge="1" parent="77e6c97f196da883-1" source="w0Vz86xxIUw0Jx15xpuw-4" target="w0Vz86xxIUw0Jx15xpuw-7">
          <mxGeometry relative="1" as="geometry" />
        </mxCell>
        <mxCell id="w0Vz86xxIUw0Jx15xpuw-30" value="geprüft" style="edgeLabel;html=1;align=center;verticalAlign=middle;resizable=0;points=[];" vertex="1" connectable="0" parent="w0Vz86xxIUw0Jx15xpuw-8">
          <mxGeometry x="0.609" y="-1" relative="1" as="geometry">
            <mxPoint as="offset" />
          </mxGeometry>
        </mxCell>
        <mxCell id="w0Vz86xxIUw0Jx15xpuw-12" style="edgeStyle=orthogonalEdgeStyle;rounded=0;orthogonalLoop=1;jettySize=auto;html=1;" edge="1" parent="77e6c97f196da883-1" source="w0Vz86xxIUw0Jx15xpuw-7" target="w0Vz86xxIUw0Jx15xpuw-14">
          <mxGeometry relative="1" as="geometry">
            <mxPoint x="370" y="195" as="targetPoint" />
          </mxGeometry>
        </mxCell>
        <mxCell id="w0Vz86xxIUw0Jx15xpuw-13" value="abgelehnt" style="edgeLabel;html=1;align=center;verticalAlign=middle;resizable=0;points=[];" vertex="1" connectable="0" parent="w0Vz86xxIUw0Jx15xpuw-12">
          <mxGeometry x="-0.2292" y="1" relative="1" as="geometry">
            <mxPoint as="offset" />
          </mxGeometry>
        </mxCell>
        <mxCell id="w0Vz86xxIUw0Jx15xpuw-29" style="edgeStyle=orthogonalEdgeStyle;rounded=0;orthogonalLoop=1;jettySize=auto;html=1;entryX=0.5;entryY=0;entryDx=0;entryDy=0;entryPerimeter=0;" edge="1" parent="77e6c97f196da883-1" source="w0Vz86xxIUw0Jx15xpuw-28" target="w0Vz86xxIUw0Jx15xpuw-23">
          <mxGeometry relative="1" as="geometry" />
        </mxCell>
      </root>
    </mxGraphModel>
  </diagram>
</mxfile>
